# xmcd CD database file
#
# Track frame offsets:
#	182
#	16815
#	29340
#	43450
#	60427
#	68952
#	80540
#	91830
#	96540
#	109372
#	117865
#	129990
#
# Disc length: 1879 seconds
#
# Revision: 3
# Processed by: cddbd v1.5.2PL0 Copyright (c) Steve Scherf et al.
# Submitted via: CDex 1.51
#
DISCID=a007550c
DTITLE=Billie Holiday - The Millenium Anthology Disc 3
DYEAR=1998
DGENRE=Jazz
TTITLE0=Fine And Mellow
TTITLE1=Keeps On A Rainin'
TTITLE2=He's Funny That Way
TTITLE3=I Cover The Waterfront
TTITLE4=Lover Come Back To Me
TTITLE5=Lover Man
TTITLE6=Everything Happens To Me
TTITLE7=I Must Have That Man
TTITLE8=My Man
TTITLE9=Please Don't Talk About Me
TTITLE10=Don't Explain
TTITLE11=Porgy
EXTD=YEAR: 1998
EXTT0=
EXTT1=
EXTT2=
EXTT3=
EXTT4=
EXTT5=
EXTT6=
EXTT7=
EXTT8=
EXTT9=
EXTT10=
EXTT11=
PLAYORDER=
